<?xml version="1.0" encoding="UTF-8"?>
<svg width="512" height="512" viewBox="0 0 512 512" fill="none" xmlns="http://www.w3.org/2000/svg">
  <style>
    path {
      fill: #3b82f6;
    }
    @media (prefers-color-scheme: dark) {
      path {
        fill: #ef4444;
      }
    }
  </style>
  <rect width="512" height="512" rx="256" fill="currentColor" fill-opacity="0.1"/>
  <path d="M256 96C167.6 96 96 167.6 96 256C96 344.4 167.6 416 256 416C344.4 416 416 344.4 416 256C416 167.6 344.4 96 256 96ZM256 384C185.3 384 128 326.7 128 256C128 185.3 185.3 128 256 128C326.7 128 384 185.3 384 256C384 326.7 326.7 384 256 384Z" fill="currentColor"/>
  <path d="M256 160C203.2 160 160 203.2 160 256C160 308.8 203.2 352 256 352C308.8 352 352 308.8 352 256C352 203.2 308.8 160 256 160ZM256 320C220.7 320 192 291.3 192 256C192 220.7 220.7 192 256 192C291.3 192 320 220.7 320 256C320 291.3 291.3 320 256 320Z" fill="currentColor"/>
  <path d="M256 224C238.3 224 224 238.3 224 256C224 273.7 238.3 288 256 288C273.7 288 288 273.7 288 256C288 238.3 273.7 224 256 224Z" fill="currentColor"/>
</svg>
